<?xml version="1.0" encoding="UTF-8"?>
<svg xmlns="http://www.w3.org/2000/svg" xmlns:xlink="http://www.w3.org/1999/xlink" width="360pt" height="288pt" viewBox="0 0 360 288" version="1.1">
<defs>
<g>
<symbol overflow="visible" id="glyph0-0">
<path style="stroke:none;" d="M 1.101563 0 L 1.101563 -5.5 L 5.5 -5.5 L 5.5 0 Z M 1.238281 -0.136719 L 5.363281 -0.136719 L 5.363281 -5.363281 L 1.238281 -5.363281 Z M 1.238281 -0.136719 "/>
</symbol>
<symbol overflow="visible" id="glyph0-1">
<path style="stroke:none;" d="M 0.367188 -3.105469 C 0.363281 -3.847656 0.4375 -4.445313 0.59375 -4.902344 C 0.742188 -5.355469 0.972656 -5.707031 1.277344 -5.953125 C 1.578125 -6.199219 1.957031 -6.320313 2.417969 -6.324219 C 2.753906 -6.320313 3.050781 -6.253906 3.308594 -6.121094 C 3.5625 -5.984375 3.773438 -5.789063 3.9375 -5.53125 C 4.101563 -5.273438 4.230469 -4.960938 4.328125 -4.59375 C 4.421875 -4.226563 4.46875 -3.730469 4.472656 -3.105469 C 4.46875 -2.367188 4.394531 -1.769531 4.242188 -1.316406 C 4.089844 -0.859375 3.863281 -0.507813 3.5625 -0.261719 C 3.257813 -0.015625 2.875 0.105469 2.417969 0.109375 C 1.808594 0.105469 1.332031 -0.109375 0.988281 -0.546875 C 0.570313 -1.066406 0.363281 -1.921875 0.367188 -3.105469 Z M 1.160156 -3.105469 C 1.160156 -2.070313 1.28125 -1.378906 1.523438 -1.039063 C 1.765625 -0.695313 2.0625 -0.527344 2.417969 -0.527344 C 2.773438 -0.527344 3.074219 -0.699219 3.316406 -1.042969 C 3.558594 -1.386719 3.679688 -2.074219 3.679688 -3.105469 C 3.679688 -4.144531 3.558594 -4.832031 3.316406 -5.171875 C 3.074219 -5.511719 2.769531 -5.683594 2.410156 -5.683594 C 2.050781 -5.683594 1.769531 -5.53125 1.558594 -5.234375 C 1.292969 -4.84375 1.160156 -4.136719 1.160156 -3.105469 Z M 1.160156 -3.105469 "/>
</symbol>
<symbol overflow="visible" id="glyph0-2">
<path style="stroke:none;" d="M 0.800781 0 L 0.800781 -0.882813 L 1.679688 -0.882813 L 1.679688 0 Z M 0.800781 0 "/>
</symbol>
<symbol overflow="visible" id="glyph0-3">
<path style="stroke:none;" d="M 4.429688 -0.742188 L 4.429688 0 L 0.265625 0 C 0.257813 -0.1875 0.289063 -0.367188 0.355469 -0.539063 C 0.460938 -0.820313 0.628906 -1.097656 0.863281 -1.375 C 1.09375 -1.648438 1.433594 -1.964844 1.878906 -2.328125 C 2.5625 -2.886719 3.023438 -3.332031 3.265625 -3.664063 C 3.5 -3.988281 3.621094 -4.300781 3.625 -4.59375 C 3.621094 -4.898438 3.511719 -5.15625 3.296875 -5.367188 C 3.074219 -5.578125 2.789063 -5.683594 2.441406 -5.683594 C 2.066406 -5.683594 1.769531 -5.570313 1.546875 -5.347656 C 1.320313 -5.125 1.207031 -4.816406 1.207031 -4.421875 L 0.414063 -4.503906 C 0.464844 -5.09375 0.667969 -5.542969 1.027344 -5.855469 C 1.378906 -6.164063 1.855469 -6.320313 2.457031 -6.324219 C 3.058594 -6.320313 3.539063 -6.152344 3.890625 -5.820313 C 4.242188 -5.484375 4.417969 -5.070313 4.421875 -4.578125 C 4.417969 -4.320313 4.367188 -4.074219 4.265625 -3.832031 C 4.164063 -3.589844 3.992188 -3.332031 3.753906 -3.0625 C 3.511719 -2.792969 3.113281 -2.425781 2.5625 -1.957031 C 2.09375 -1.566406 1.796875 -1.300781 1.664063 -1.160156 C 1.53125 -1.019531 1.421875 -0.878906 1.339844 -0.742188 Z M 4.429688 -0.742188 "/>
</symbol>
<symbol overflow="visible" id="glyph0-4">
<path style="stroke:none;" d="M 0.367188 -1.648438 L 1.175781 -1.71875 C 1.234375 -1.320313 1.375 -1.023438 1.59375 -0.824219 C 1.8125 -0.625 2.078125 -0.527344 2.390625 -0.527344 C 2.761719 -0.527344 3.074219 -0.667969 3.335938 -0.949219 C 3.589844 -1.230469 3.71875 -1.601563 3.722656 -2.066406 C 3.71875 -2.503906 3.59375 -2.851563 3.347656 -3.109375 C 3.097656 -3.363281 2.773438 -3.492188 2.375 -3.492188 C 2.125 -3.492188 1.902344 -3.433594 1.703125 -3.320313 C 1.5 -3.207031 1.34375 -3.0625 1.230469 -2.882813 L 0.503906 -2.976563 L 1.113281 -6.214844 L 4.246094 -6.214844 L 4.246094 -5.472656 L 1.730469 -5.472656 L 1.390625 -3.78125 C 1.765625 -4.039063 2.164063 -4.171875 2.582031 -4.175781 C 3.128906 -4.171875 3.59375 -3.980469 3.972656 -3.605469 C 4.351563 -3.222656 4.539063 -2.734375 4.542969 -2.136719 C 4.539063 -1.5625 4.375 -1.070313 4.042969 -0.65625 C 3.636719 -0.148438 3.085938 0.105469 2.390625 0.109375 C 1.816406 0.105469 1.347656 -0.0507813 0.984375 -0.371094 C 0.621094 -0.691406 0.414063 -1.117188 0.367188 -1.648438 Z M 0.367188 -1.648438 "/>
</symbol>
<symbol overflow="visible" id="glyph0-5">
<path style="stroke:none;" d="M 0.417969 -5.472656 L 0.417969 -6.21875 L 4.496094 -6.21875 L 4.496094 -5.617188 C 4.089844 -5.1875 3.691406 -4.621094 3.300781 -3.914063 C 2.902344 -3.203125 2.601563 -2.472656 2.390625 -1.730469 C 2.234375 -1.199219 2.132813 -0.625 2.09375 0 L 1.296875 0 C 1.304688 -0.492188 1.402344 -1.089844 1.589844 -1.792969 C 1.773438 -2.496094 2.042969 -3.171875 2.390625 -3.824219 C 2.738281 -4.476563 3.109375 -5.027344 3.503906 -5.472656 Z M 0.417969 -5.472656 "/>
</symbol>
<symbol overflow="visible" id="glyph0-6">
<path style="stroke:none;" d="M 3.277344 0 L 2.503906 0 L 2.503906 -4.929688 C 2.316406 -4.75 2.074219 -4.574219 1.773438 -4.394531 C 1.46875 -4.214844 1.195313 -4.082031 0.957031 -3.996094 L 0.957031 -4.742188 C 1.386719 -4.941406 1.765625 -5.1875 2.089844 -5.480469 C 2.414063 -5.769531 2.644531 -6.050781 2.78125 -6.324219 L 3.277344 -6.324219 Z M 3.277344 0 "/>
</symbol>
<symbol overflow="visible" id="glyph0-7">
<path style="stroke:none;" d="M 0.371094 -1.664063 L 1.144531 -1.765625 C 1.230469 -1.324219 1.382813 -1.007813 1.597656 -0.816406 C 1.808594 -0.621094 2.066406 -0.527344 2.375 -0.527344 C 2.734375 -0.527344 3.042969 -0.652344 3.296875 -0.90625 C 3.546875 -1.15625 3.671875 -1.46875 3.675781 -1.84375 C 3.671875 -2.195313 3.554688 -2.488281 3.324219 -2.71875 C 3.089844 -2.949219 2.796875 -3.0625 2.441406 -3.066406 C 2.292969 -3.0625 2.109375 -3.035156 1.894531 -2.980469 L 1.980469 -3.660156 C 2.03125 -3.652344 2.070313 -3.648438 2.105469 -3.652344 C 2.433594 -3.648438 2.730469 -3.734375 2.996094 -3.910156 C 3.253906 -4.078125 3.386719 -4.34375 3.390625 -4.703125 C 3.386719 -4.984375 3.289063 -5.21875 3.101563 -5.40625 C 2.90625 -5.589844 2.660156 -5.683594 2.359375 -5.6875 C 2.054688 -5.683594 1.804688 -5.589844 1.605469 -5.402344 C 1.402344 -5.214844 1.273438 -4.929688 1.21875 -4.554688 L 0.445313 -4.691406 C 0.539063 -5.207031 0.753906 -5.609375 1.089844 -5.894531 C 1.425781 -6.179688 1.84375 -6.320313 2.34375 -6.324219 C 2.6875 -6.320313 3.003906 -6.246094 3.292969 -6.101563 C 3.582031 -5.953125 3.800781 -5.753906 3.953125 -5.5 C 4.105469 -5.242188 4.183594 -4.972656 4.183594 -4.6875 C 4.183594 -4.414063 4.109375 -4.164063 3.964844 -3.945313 C 3.816406 -3.71875 3.601563 -3.542969 3.316406 -3.410156 C 3.6875 -3.324219 3.976563 -3.144531 4.183594 -2.875 C 4.390625 -2.601563 4.492188 -2.261719 4.496094 -1.859375 C 4.492188 -1.304688 4.292969 -0.839844 3.894531 -0.460938 C 3.492188 -0.078125 2.984375 0.109375 2.371094 0.113281 C 1.816406 0.109375 1.355469 -0.0507813 0.992188 -0.378906 C 0.625 -0.707031 0.417969 -1.136719 0.371094 -1.664063 Z M 0.371094 -1.664063 "/>
</symbol>
<symbol overflow="visible" id="glyph1-0">
<path style="stroke:none;" d="M 1.375 0 L 1.375 -6.875 L 6.875 -6.875 L 6.875 0 Z M 1.546875 -0.171875 L 6.703125 -0.171875 L 6.703125 -6.703125 L 1.546875 -6.703125 Z M 1.546875 -0.171875 "/>
</symbol>
<symbol overflow="visible" id="glyph1-1">
<path style="stroke:none;" d="M 0.0820313 0 L 2.164063 -2.964844 L 0.234375 -5.703125 L 1.445313 -5.703125 L 2.320313 -4.367188 C 2.484375 -4.109375 2.617188 -3.898438 2.71875 -3.726563 C 2.875 -3.960938 3.019531 -4.167969 3.152344 -4.355469 L 4.113281 -5.703125 L 5.269531 -5.703125 L 3.296875 -3.019531 L 5.417969 0 L 4.234375 0 L 3.0625 -1.773438 L 2.75 -2.25 L 1.25 0 Z M 0.0820313 0 "/>
</symbol>
<symbol overflow="visible" id="glyph2-0">
<path style="stroke:none;" d="M 0 -1.375 L -6.875 -1.375 L -6.875 -6.875 L 0 -6.875 Z M -0.171875 -1.546875 L -0.171875 -6.703125 L -6.703125 -6.703125 L -6.703125 -1.546875 Z M -0.171875 -1.546875 "/>
</symbol>
<symbol overflow="visible" id="glyph2-1">
<path style="stroke:none;" d="M 0 -0.730469 L -7.875 -0.730469 L -7.875 -1.699219 L -3.382813 -1.699219 L -5.703125 -3.984375 L -5.703125 -5.238281 L -3.585938 -3.054688 L 0 -5.457031 L 0 -4.265625 L -2.917969 -2.378906 L -2.261719 -1.699219 L 0 -1.695313 Z M 0 -0.730469 "/>
</symbol>
<symbol overflow="visible" id="glyph2-2">
<path style="stroke:none;" d="M 0 -0.714844 L -5.703125 -0.714844 L -5.703125 -1.585938 L -4.839844 -1.585938 C -5.242188 -1.804688 -5.507813 -2.007813 -5.636719 -2.199219 C -5.765625 -2.382813 -5.828125 -2.589844 -5.832031 -2.820313 C -5.828125 -3.140625 -5.726563 -3.472656 -5.523438 -3.8125 L -4.625 -3.480469 C -4.761719 -3.242188 -4.832031 -3.003906 -4.835938 -2.773438 C -4.832031 -2.554688 -4.769531 -2.363281 -4.644531 -2.199219 C -4.515625 -2.027344 -4.339844 -1.910156 -4.113281 -1.84375 C -3.769531 -1.730469 -3.390625 -1.675781 -2.984375 -1.679688 L 0 -1.679688 Z M 0 -0.714844 "/>
</symbol>
<symbol overflow="visible" id="glyph2-3">
<path style="stroke:none;" d=""/>
</symbol>
<symbol overflow="visible" id="glyph2-4">
<path style="stroke:none;" d="M -6.429688 -0.34375 L -7.191406 -0.589844 C -6.988281 -1.15625 -6.816406 -1.570313 -6.671875 -1.832031 C -7.316406 -1.761719 -7.761719 -1.726563 -8.007813 -1.722656 L -8.007813 -2.503906 C -7.652344 -2.488281 -7.207031 -2.449219 -6.675781 -2.378906 C -6.859375 -2.746094 -7.03125 -3.167969 -7.191406 -3.648438 L -6.429688 -3.894531 C -6.273438 -3.4375 -6.175781 -2.992188 -6.128906 -2.558594 C -5.9375 -2.773438 -5.597656 -3.082031 -5.113281 -3.480469 L -4.65625 -2.835938 C -4.9375 -2.625 -5.324219 -2.378906 -5.8125 -2.101563 C -5.304688 -1.832031 -4.917969 -1.597656 -4.65625 -1.402344 L -5.113281 -0.769531 C -5.625 -1.179688 -5.964844 -1.476563 -6.128906 -1.660156 C -6.214844 -1.195313 -6.3125 -0.757813 -6.429688 -0.34375 Z M -6.429688 -0.34375 "/>
</symbol>
<symbol overflow="visible" id="glyph2-5">
<path style="stroke:none;" d="M 0 -4.097656 L 0 -3.132813 L -6.160156 -3.132813 C -5.933594 -2.894531 -5.710938 -2.589844 -5.492188 -2.214844 C -5.265625 -1.835938 -5.101563 -1.496094 -4.996094 -1.199219 L -5.929688 -1.199219 C -6.183594 -1.734375 -6.488281 -2.207031 -6.851563 -2.613281 C -7.210938 -3.019531 -7.5625 -3.304688 -7.90625 -3.476563 L -7.90625 -4.097656 Z M 0 -4.097656 "/>
</symbol>
<symbol overflow="visible" id="glyph2-6">
<path style="stroke:none;" d="M -1.835938 -4.628906 L -1.714844 -5.628906 C -1.125 -5.46875 -0.671875 -5.175781 -0.351563 -4.75 C -0.03125 -4.324219 0.128906 -3.78125 0.128906 -3.121094 C 0.128906 -2.28125 -0.125 -1.617188 -0.640625 -1.132813 C -1.152344 -0.640625 -1.875 -0.398438 -2.804688 -0.402344 C -3.761719 -0.398438 -4.503906 -0.644531 -5.035156 -1.144531 C -5.5625 -1.636719 -5.828125 -2.277344 -5.832031 -3.066406 C -5.828125 -3.824219 -5.570313 -4.449219 -5.050781 -4.933594 C -4.53125 -5.417969 -3.800781 -5.660156 -2.863281 -5.660156 C -2.804688 -5.660156 -2.71875 -5.65625 -2.605469 -5.65625 L -2.605469 -1.402344 C -1.976563 -1.433594 -1.496094 -1.613281 -1.164063 -1.933594 C -0.828125 -2.25 -0.660156 -2.644531 -0.664063 -3.125 C -0.660156 -3.476563 -0.753906 -3.78125 -0.941406 -4.03125 C -1.125 -4.28125 -1.421875 -4.480469 -1.835938 -4.628906 Z M -3.398438 -1.457031 L -3.398438 -4.640625 C -3.878906 -4.597656 -4.238281 -4.472656 -4.480469 -4.273438 C -4.851563 -3.960938 -5.039063 -3.5625 -5.039063 -3.078125 C -5.039063 -2.628906 -4.890625 -2.257813 -4.59375 -1.957031 C -4.296875 -1.652344 -3.898438 -1.484375 -3.398438 -1.457031 Z M -3.398438 -1.457031 "/>
</symbol>
<symbol overflow="visible" id="glyph2-7">
<path style="stroke:none;" d="M -1.273438 -2.753906 L -3.433594 -2.753906 L -3.433594 -0.613281 L -4.335938 -0.613281 L -4.335938 -2.753906 L -6.476563 -2.753906 L -6.476563 -3.667969 L -4.335938 -3.667969 L -4.335938 -5.8125 L -3.433594 -5.8125 L -3.433594 -3.667969 L -1.273438 -3.667969 Z M -1.273438 -2.753906 "/>
</symbol>
<symbol overflow="visible" id="glyph2-8">
<path style="stroke:none;" d="M -3.882813 -0.457031 C -4.8125 -0.457031 -5.5625 -0.550781 -6.132813 -0.742188 C -6.699219 -0.933594 -7.136719 -1.21875 -7.445313 -1.597656 C -7.75 -1.972656 -7.902344 -2.449219 -7.90625 -3.023438 C -7.902344 -3.445313 -7.816406 -3.8125 -7.648438 -4.132813 C -7.476563 -4.449219 -7.234375 -4.714844 -6.914063 -4.925781 C -6.59375 -5.132813 -6.203125 -5.296875 -5.742188 -5.414063 C -5.28125 -5.53125 -4.660156 -5.589844 -3.882813 -5.589844 C -2.957031 -5.589844 -2.210938 -5.492188 -1.644531 -5.304688 C -1.074219 -5.113281 -0.636719 -4.832031 -0.328125 -4.457031 C -0.0234375 -4.078125 0.128906 -3.601563 0.132813 -3.023438 C 0.128906 -2.265625 -0.140625 -1.667969 -0.683594 -1.234375 C -1.335938 -0.714844 -2.402344 -0.457031 -3.882813 -0.457031 Z M -3.882813 -1.449219 C -2.589844 -1.445313 -1.730469 -1.597656 -1.300781 -1.902344 C -0.871094 -2.203125 -0.65625 -2.578125 -0.660156 -3.023438 C -0.65625 -3.46875 -0.871094 -3.839844 -1.304688 -4.144531 C -1.730469 -4.441406 -2.589844 -4.59375 -3.882813 -4.597656 C -5.175781 -4.59375 -6.035156 -4.441406 -6.464844 -4.144531 C -6.886719 -3.839844 -7.101563 -3.464844 -7.105469 -3.011719 C -7.101563 -2.566406 -6.914063 -2.210938 -6.542969 -1.949219 C -6.058594 -1.613281 -5.171875 -1.445313 -3.882813 -1.449219 Z M -3.882813 -1.449219 "/>
</symbol>
<symbol overflow="visible" id="glyph2-9">
<path style="stroke:none;" d="M -4.269531 -1.945313 C -4.414063 -1.542969 -4.625 -1.242188 -4.898438 -1.050781 C -5.167969 -0.855469 -5.492188 -0.761719 -5.875 -0.761719 C -6.445313 -0.761719 -6.925781 -0.964844 -7.320313 -1.378906 C -7.707031 -1.789063 -7.902344 -2.339844 -7.90625 -3.023438 C -7.902344 -3.710938 -7.703125 -4.261719 -7.304688 -4.683594 C -6.902344 -5.097656 -6.417969 -5.308594 -5.847656 -5.3125 C -5.480469 -5.308594 -5.160156 -5.210938 -4.894531 -5.023438 C -4.621094 -4.828125 -4.414063 -4.539063 -4.269531 -4.152344 C -4.109375 -4.632813 -3.855469 -5 -3.507813 -5.253906 C -3.152344 -5.503906 -2.734375 -5.628906 -2.25 -5.632813 C -1.578125 -5.628906 -1.011719 -5.390625 -0.554688 -4.917969 C -0.0976563 -4.441406 0.128906 -3.816406 0.132813 -3.039063 C 0.128906 -2.261719 -0.0976563 -1.636719 -0.554688 -1.160156 C -1.011719 -0.683594 -1.585938 -0.445313 -2.277344 -0.445313 C -2.789063 -0.445313 -3.21875 -0.574219 -3.5625 -0.835938 C -3.90625 -1.09375 -4.140625 -1.464844 -4.269531 -1.945313 Z M -5.90625 -1.75 C -5.535156 -1.746094 -5.230469 -1.867188 -4.996094 -2.109375 C -4.757813 -2.351563 -4.640625 -2.664063 -4.640625 -3.046875 C -4.640625 -3.417969 -4.757813 -3.722656 -4.992188 -3.960938 C -5.226563 -4.199219 -5.511719 -4.316406 -5.855469 -4.320313 C -6.207031 -4.316406 -6.503906 -4.195313 -6.746094 -3.949219 C -6.984375 -3.703125 -7.105469 -3.398438 -7.109375 -3.035156 C -7.105469 -2.664063 -6.988281 -2.355469 -6.753906 -2.113281 C -6.515625 -1.867188 -6.234375 -1.746094 -5.90625 -1.75 Z M -2.273438 -1.441406 C -1.996094 -1.441406 -1.726563 -1.503906 -1.472656 -1.636719 C -1.210938 -1.761719 -1.011719 -1.957031 -0.871094 -2.21875 C -0.726563 -2.472656 -0.65625 -2.75 -0.660156 -3.050781 C -0.65625 -3.507813 -0.804688 -3.886719 -1.105469 -4.191406 C -1.398438 -4.488281 -1.777344 -4.640625 -2.238281 -4.644531 C -2.703125 -4.640625 -3.085938 -4.484375 -3.394531 -4.179688 C -3.695313 -3.867188 -3.847656 -3.480469 -3.851563 -3.019531 C -3.847656 -2.558594 -3.699219 -2.183594 -3.398438 -1.886719 C -3.097656 -1.589844 -2.722656 -1.441406 -2.273438 -1.441406 Z M -2.273438 -1.441406 "/>
</symbol>
</g>
<clipPath id="clip1">
  <path d="M 40.46875 5.480469 L 354.523438 5.480469 L 354.523438 256.511719 L 40.46875 256.511719 Z M 40.46875 5.480469 "/>
</clipPath>
<clipPath id="clip2">
  <path d="M 40.46875 5.480469 L 354.523438 5.480469 L 354.523438 256.511719 L 40.46875 256.511719 Z M 40.46875 5.480469 "/>
</clipPath>
</defs>
<g id="surface11">
<rect x="0" y="0" width="360" height="288" style="fill:rgb(100%,100%,100%);fill-opacity:1;stroke:none;"/>
<rect x="0" y="0" width="360" height="288" style="fill:rgb(100%,100%,100%);fill-opacity:1;stroke:none;"/>
<path style="fill:none;stroke-width:1.066978;stroke-linecap:round;stroke-linejoin:round;stroke:rgb(100%,100%,100%);stroke-opacity:1;stroke-miterlimit:10;" d="M 0 288 L 360 288 L 360 0 L 0 0 Z M 0 288 "/>
<g clip-path="url(#clip1)" clip-rule="nonzero">
<path style=" stroke:none;fill-rule:nonzero;fill:rgb(100%,100%,100%);fill-opacity:1;" d="M 40.46875 256.507813 L 354.523438 256.507813 L 354.523438 5.476563 L 40.46875 5.476563 Z M 40.46875 256.507813 "/>
</g>
<path style="fill:none;stroke-width:4.267913;stroke-linecap:butt;stroke-linejoin:round;stroke:rgb(100%,0%,0%);stroke-opacity:1;stroke-miterlimit:10;" d="M 64.257813 58.214844 L 73.777344 55.742188 L 83.292969 53.265625 L 92.808594 50.792969 L 102.324219 48.316406 L 111.84375 45.839844 L 121.359375 43.367188 L 130.875 133.273438 L 140.394531 130.800781 L 159.425781 125.847656 L 168.945313 123.375 L 187.976563 118.421875 L 197.492188 115.949219 L 207.011719 113.472656 L 216.527344 110.996094 L 226.042969 108.523438 L 235.5625 106.046875 L 245.078125 103.574219 L 264.109375 98.621094 L 273.628906 96.148438 L 292.660156 91.195313 L 302.179688 94.546875 L 311.695313 92.074219 L 321.210938 89.597656 L 330.730469 87.121094 L 340.246094 84.648438 "/>
<path style="fill:none;stroke-width:4.267913;stroke-linecap:butt;stroke-linejoin:round;stroke:rgb(0%,0%,100%);stroke-opacity:1;stroke-miterlimit:10;" d="M 64.257813 245.097656 L 73.777344 245.03125 L 83.292969 244.949219 L 92.808594 244.859375 L 102.324219 244.753906 L 111.84375 244.632813 L 121.359375 244.492188 L 130.875 244.332031 L 140.394531 244.148438 L 149.910156 243.9375 L 159.425781 243.695313 L 168.945313 243.417969 L 178.460938 243.097656 L 187.976563 242.730469 L 197.492188 242.308594 L 207.011719 241.824219 L 216.527344 241.265625 L 226.042969 240.625 L 235.5625 239.886719 L 245.078125 239.039063 L 254.59375 238.066406 L 264.109375 236.949219 L 273.628906 235.667969 L 283.144531 234.191406 L 292.660156 232.492188 L 302.179688 230.546875 L 311.695313 228.304688 L 321.210938 225.730469 L 330.730469 222.773438 L 340.246094 219.375 "/>
<path style="fill:none;stroke-width:4.267913;stroke-linecap:butt;stroke-linejoin:round;stroke:rgb(0%,100%,0%);stroke-opacity:1;stroke-miterlimit:10;" d="M 64.257813 33.683594 L 73.777344 30.886719 L 83.292969 28.085938 L 92.808594 25.289063 L 102.324219 22.488281 L 111.84375 19.6875 L 121.359375 16.890625 L 130.875 118.570313 L 140.394531 115.773438 L 159.425781 110.171875 L 168.945313 107.375 L 178.460938 104.574219 L 187.976563 101.777344 L 197.492188 98.976563 L 207.011719 96.175781 L 216.527344 93.378906 L 226.042969 90.578125 L 235.5625 87.777344 L 245.078125 84.980469 L 254.59375 82.179688 L 264.109375 79.382813 L 273.628906 76.582031 L 283.144531 73.78125 L 292.660156 70.984375 L 302.179688 74.773438 L 311.695313 71.972656 L 321.210938 69.175781 L 330.730469 66.375 L 340.246094 63.578125 "/>
<path style="fill:none;stroke-width:4.267913;stroke-linecap:butt;stroke-linejoin:round;stroke:rgb(74.509804%,74.509804%,74.509804%);stroke-opacity:1;stroke-dasharray:17.071654,17.071654;stroke-miterlimit:10;" d="M 64.257813 202.777344 L 340.246094 202.777344 "/>
<g clip-path="url(#clip2)" clip-rule="nonzero">
<path style="fill:none;stroke-width:1.066978;stroke-linecap:round;stroke-linejoin:round;stroke:rgb(20%,20%,20%);stroke-opacity:1;stroke-miterlimit:10;" d="M 40.46875 256.507813 L 354.523438 256.507813 L 354.523438 5.476563 L 40.46875 5.476563 Z M 40.46875 256.507813 "/>
</g>
<g style="fill:rgb(30.196078%,30.196078%,30.196078%);fill-opacity:1;">
  <use xlink:href="#glyph0-1" x="23.300781" y="248.714844"/>
  <use xlink:href="#glyph0-2" x="28.194922" y="248.714844"/>
  <use xlink:href="#glyph0-1" x="30.639844" y="248.714844"/>
</g>
<g style="fill:rgb(30.196078%,30.196078%,30.196078%);fill-opacity:1;">
  <use xlink:href="#glyph0-3" x="23.300781" y="189.289063"/>
  <use xlink:href="#glyph0-2" x="28.194922" y="189.289063"/>
  <use xlink:href="#glyph0-4" x="30.639844" y="189.289063"/>
</g>
<g style="fill:rgb(30.196078%,30.196078%,30.196078%);fill-opacity:1;">
  <use xlink:href="#glyph0-4" x="23.300781" y="129.863281"/>
  <use xlink:href="#glyph0-2" x="28.194922" y="129.863281"/>
  <use xlink:href="#glyph0-1" x="30.639844" y="129.863281"/>
</g>
<g style="fill:rgb(30.196078%,30.196078%,30.196078%);fill-opacity:1;">
  <use xlink:href="#glyph0-5" x="23.300781" y="70.4375"/>
  <use xlink:href="#glyph0-2" x="28.194922" y="70.4375"/>
  <use xlink:href="#glyph0-4" x="30.639844" y="70.4375"/>
</g>
<g style="fill:rgb(30.196078%,30.196078%,30.196078%);fill-opacity:1;">
  <use xlink:href="#glyph0-6" x="18.40625" y="11.011719"/>
  <use xlink:href="#glyph0-1" x="23.300391" y="11.011719"/>
  <use xlink:href="#glyph0-2" x="28.194531" y="11.011719"/>
  <use xlink:href="#glyph0-1" x="30.639453" y="11.011719"/>
</g>
<path style="fill:none;stroke-width:1.066978;stroke-linecap:butt;stroke-linejoin:round;stroke:rgb(20%,20%,20%);stroke-opacity:1;stroke-miterlimit:10;" d="M 37.726563 245.5625 L 40.46875 245.5625 "/>
<path style="fill:none;stroke-width:1.066978;stroke-linecap:butt;stroke-linejoin:round;stroke:rgb(20%,20%,20%);stroke-opacity:1;stroke-miterlimit:10;" d="M 37.726563 186.136719 L 40.46875 186.136719 "/>
<path style="fill:none;stroke-width:1.066978;stroke-linecap:butt;stroke-linejoin:round;stroke:rgb(20%,20%,20%);stroke-opacity:1;stroke-miterlimit:10;" d="M 37.726563 126.714844 L 40.46875 126.714844 "/>
<path style="fill:none;stroke-width:1.066978;stroke-linecap:butt;stroke-linejoin:round;stroke:rgb(20%,20%,20%);stroke-opacity:1;stroke-miterlimit:10;" d="M 37.726563 67.289063 L 40.46875 67.289063 "/>
<path style="fill:none;stroke-width:1.066978;stroke-linecap:butt;stroke-linejoin:round;stroke:rgb(20%,20%,20%);stroke-opacity:1;stroke-miterlimit:10;" d="M 37.726563 7.863281 L 40.46875 7.863281 "/>
<path style="fill:none;stroke-width:1.066978;stroke-linecap:butt;stroke-linejoin:round;stroke:rgb(20%,20%,20%);stroke-opacity:1;stroke-miterlimit:10;" d="M 54.742188 259.25 L 54.742188 256.507813 "/>
<path style="fill:none;stroke-width:1.066978;stroke-linecap:butt;stroke-linejoin:round;stroke:rgb(20%,20%,20%);stroke-opacity:1;stroke-miterlimit:10;" d="M 149.910156 259.25 L 149.910156 256.507813 "/>
<path style="fill:none;stroke-width:1.066978;stroke-linecap:butt;stroke-linejoin:round;stroke:rgb(20%,20%,20%);stroke-opacity:1;stroke-miterlimit:10;" d="M 245.078125 259.25 L 245.078125 256.507813 "/>
<path style="fill:none;stroke-width:1.066978;stroke-linecap:butt;stroke-linejoin:round;stroke:rgb(20%,20%,20%);stroke-opacity:1;stroke-miterlimit:10;" d="M 340.246094 259.25 L 340.246094 256.507813 "/>
<g style="fill:rgb(30.196078%,30.196078%,30.196078%);fill-opacity:1;">
  <use xlink:href="#glyph0-1" x="52.296875" y="267.738281"/>
</g>
<g style="fill:rgb(30.196078%,30.196078%,30.196078%);fill-opacity:1;">
  <use xlink:href="#glyph0-6" x="145.015625" y="267.738281"/>
  <use xlink:href="#glyph0-1" x="149.909766" y="267.738281"/>
</g>
<g style="fill:rgb(30.196078%,30.196078%,30.196078%);fill-opacity:1;">
  <use xlink:href="#glyph0-3" x="240.183594" y="267.738281"/>
  <use xlink:href="#glyph0-1" x="245.077734" y="267.738281"/>
</g>
<g style="fill:rgb(30.196078%,30.196078%,30.196078%);fill-opacity:1;">
  <use xlink:href="#glyph0-7" x="335.351563" y="267.738281"/>
  <use xlink:href="#glyph0-1" x="340.245703" y="267.738281"/>
</g>
<g style="fill:rgb(0%,0%,0%);fill-opacity:1;">
  <use xlink:href="#glyph1-1" x="194.742188" y="280.207031"/>
</g>
<g style="fill:rgb(0%,0%,0%);fill-opacity:1;">
  <use xlink:href="#glyph2-1" x="13.351563" y="156.222656"/>
  <use xlink:href="#glyph2-2" x="13.351563" y="150.722656"/>
  <use xlink:href="#glyph2-3" x="13.351563" y="147.05957"/>
  <use xlink:href="#glyph2-4" x="13.351563" y="144.003418"/>
  <use xlink:href="#glyph2-3" x="13.351563" y="139.722656"/>
  <use xlink:href="#glyph2-5" x="13.351563" y="136.666504"/>
  <use xlink:href="#glyph2-6" x="13.351563" y="130.548828"/>
  <use xlink:href="#glyph2-7" x="13.351563" y="124.431152"/>
  <use xlink:href="#glyph2-8" x="13.351563" y="118.007324"/>
  <use xlink:href="#glyph2-9" x="13.351563" y="111.889648"/>
</g>
</g>
</svg>
